<?xml version="1.0" encoding="UTF-8" standalone="no"?>
<svg
   version="1.0"
   width="3000.000000pt"
   height="2400.000000pt"
   viewBox="0 0 3000.000000 2400.000000"
   preserveAspectRatio="xMidYMid meet"
   id="svg99"
   sodipodi:docname="pikachu3.svg"
   inkscape:version="1.1.2 (b8e25be833, 2022-02-05)"
   xmlns:inkscape="http://www.inkscape.org/namespaces/inkscape"
   xmlns:sodipodi="http://sodipodi.sourceforge.net/DTD/sodipodi-0.dtd"
   xmlns="http://www.w3.org/2000/svg"
   xmlns:svg="http://www.w3.org/2000/svg">
  <defs
     id="defs103" />
  <sodipodi:namedview
     id="namedview101"
     pagecolor="#ffffff"
     bordercolor="#666666"
     borderopacity="1.0"
     inkscape:pageshadow="2"
     inkscape:pageopacity="0.0"
     inkscape:pagecheckerboard="0"
     inkscape:document-units="pt"
     showgrid="false"
     inkscape:zoom="0.144125"
     inkscape:cx="1311.3617"
     inkscape:cy="1852.5585"
     inkscape:window-width="1366"
     inkscape:window-height="715"
     inkscape:window-x="-8"
     inkscape:window-y="-8"
     inkscape:window-maximized="1"
     inkscape:current-layer="svg99" />
  <g
     id="g218"
     transform="translate(-807.03931,536.40078)">
    <path
       d="m 2503.5,99.2 c -30.7,2.2 -63.4,11.8 -82.5,24 -15.1,9.7 -35.3,31.5 -46.1,49.6 -2.3,4 -4.6,7.5 -5,7.7 -0.4,0.3 -5.8,-2 -12,-4.9 -11.7,-5.5 -35.1,-13.9 -49.4,-17.6 -11.1,-2.8 -33.3,-6.9 -42.9,-7.8 -10.6,-0.9 -56.6,-0.9 -63.6,0.1 -41,5.7 -73.2,17.1 -104.2,36.7 -11,7 -26.4,18.2 -28.5,20.7 -0.9,1.2 -1.8,0.7 -5.2,-2.6 -19.7,-19.3 -46,-32.9 -73.1,-37.8 -13.2,-2.3 -42.4,-2.3 -58,0.1 -90,13.9 -178.8,76.2 -272.9,191.4 -5.6,6.8 -10.1,12.8 -10.1,13.3 0,2.1 3,6.7 5.4,8.3 4.9,3.1 7.8,2.2 17.1,-5.7 15.6,-13.2 37.2,-24.6 57,-30 15.6,-4.3 20.7,-5.1 34,-5.1 25.2,0.1 44.2,8 51,21.3 3.8,7.5 6.4,17.4 7,26.8 0.3,4.8 1.3,15.8 2,24.3 0.8,8.5 1.5,23.4 1.5,33 0,30.2 4.7,41.3 20.6,49.1 5.9,2.9 7,3.1 14.1,2.7 9.7,-0.6 16.1,-3.3 22.7,-9.6 9.1,-8.8 12,-20.9 7.7,-32.2 -5.8,-15.4 -20.7,-22.7 -34.2,-16.9 -12.3,5.3 -14.5,23.7 -3.9,33.3 6.7,6.1 12.2,6 12.8,-0.3 0.3,-2.6 -0.4,-3.9 -3.8,-7.3 -3.9,-3.8 -4.2,-4.4 -3.7,-8.1 0.7,-5.1 3.5,-7.9 7.9,-8 5.2,-0.1 9.1,1.9 12,6.4 5,7.7 4.5,16.2 -1.4,23.4 -7.8,9.4 -21.6,10.7 -30.7,2.9 -9.3,-8 -12.6,-24.1 -7.1,-34.9 3,-5.9 15.5,-20 37.9,-42.9 36.3,-37 66.6,-60.3 112.4,-86.4 4.8,-2.8 8.7,-4.7 8.7,-4.2 0,0.5 -1.6,6.2 -3.5,12.8 -2.8,10.1 -5.9,23.9 -7.9,36.2 -2.1,13 -2.8,27.4 -2.3,46.8 1.1,40.4 7.3,68.8 26.1,118.3 5.8,15.4 7.7,35.8 5.3,57.7 -0.8,7.3 -1.6,13.4 -1.8,13.6 -0.2,0.2 -4.2,-0.4 -8.9,-1.5 -19.1,-4.2 -44.8,-4.7 -65.5,-1.3 -28.2,4.6 -60.1,17 -83.5,32.4 -24.6,16.2 -39.2,32.5 -51.9,57.8 -21.3,42.5 -27.4,87.8 -17,127 16.2,61.5 64.1,109.2 139.4,139.2 31.2,12.4 75.4,24 106.5,28 8.4,1.1 8.5,1.1 12.5,5.8 2.2,2.6 6.9,7.7 10.4,11.4 l 6.4,6.8 -3.9,1.6 c -2.1,0.9 -8.6,2.8 -14.4,4.1 -65.6,15.6 -102.4,31.4 -124,53.4 -11.4,11.6 -16.9,23.3 -19,40.9 -3.7,30.8 2,48.9 17.8,55.7 2.6,1.2 6.5,1.7 13.7,1.6 11.3,0 7.2,1.2 89,-25.5 94,-30.6 170.1,-56.4 184.8,-62.7 2.5,-1.1 5.7,-3.5 7.2,-5.5 4.3,-5.6 7.7,-17.6 7.9,-27.6 l 0.1,-8.5 11.8,3.2 c 12.8,3.5 36.6,7.7 51.7,9.2 5.2,0.5 23.2,0.8 40,0.6 31.7,-0.4 42.1,-1.4 64.6,-6.4 8.4,-1.9 22.8,-6 26.6,-7.6 1.3,-0.5 1.8,-0.1 2.2,1.7 4.8,21 8.3,33.4 11.2,39.3 4.7,9.6 14,19.2 40.4,41.5 7.4,6.3 13.7,11.7 14,12 1,1.1 42.9,35.7 48.4,40 1.8,1.4 5.3,4.2 7.8,6.3 9.3,7.8 44.7,35.1 55.7,42.9 6.3,4.5 14.8,9.9 18.8,12 6.8,3.5 8.1,3.8 15.6,3.8 43.1,0 67.1,-42.6 49.7,-88 -6.5,-16.6 -21.9,-37.3 -40,-53.5 -21.9,-19.6 -43.5,-37.2 -69,-56.3 -11.8,-8.9 -23.6,-17.7 -26.3,-19.7 l -4.7,-3.7 9.6,-10.1 c 17.7,-18.8 39.3,-49.4 50.2,-71.2 10.1,-20.3 17,-45.9 19.7,-73.5 3.1,-31.1 1.2,-55.4 -7.5,-96.5 -0.5,-2.2 -1.1,-4.7 -1.5,-5.6 -0.4,-1.1 1.3,-3 5.7,-6.4 15.8,-12.3 44.2,-35.4 52.8,-43.1 1.9,-1.7 9.8,-8.7 17.5,-15.4 7.7,-6.8 17.6,-15.8 22,-20 18.7,-17.9 38.4,-36 39,-36 0.4,0 8.4,6.9 17.9,15.3 19.6,17.5 34,30.2 37.5,33.2 1.4,1.1 3.2,2.7 4.1,3.6 10,9.5 42.1,35 48,38 5,2.6 6.8,2 12.3,-4.1 29.5,-32.8 82.2,-248.3 95.7,-391.5 2.5,-26.4 2.8,-63.4 0.6,-71.3 -3,-10.9 -7.4,-13.2 -13.3,-7 -9,9.7 -31.5,42.9 -55.8,82.3 -3.8,6 -8.2,13.2 -10,16 -1.8,2.7 -7.6,12.2 -13,21 -20.7,33.9 -24,39.3 -29.5,48 -3.1,4.9 -8.3,13.2 -11.6,18.4 -29.4,46.6 -56.4,86.1 -64.2,93.9 l -2.1,2.1 -1.5,-4.2 c -6,-16.3 -19.1,-62.5 -25.6,-89.7 -7.1,-30.1 -12.8,-46 -16.3,-46 -4.7,0 -12.7,17.3 -25.2,54 -20.1,59 -32.3,91.2 -51.2,134.5 -8.2,18.8 -28.1,59.4 -36.3,74 -9.8,17.4 -20.1,34.5 -20.8,34.4 -0.4,0 -4.4,-7.6 -8.9,-16.7 -10.3,-20.9 -19.7,-36.9 -37.3,-63.7 -22.2,-33.7 -32.1,-53.7 -38.5,-77.2 -4.9,-17.7 -5.3,-25.4 -5.4,-86.3 0,-44.7 -0.4,-59 -1.6,-68.5 -4.6,-35.7 -12.2,-61.8 -26.7,-91 -3.9,-7.7 -7.9,-15.4 -8.9,-17.2 l -2,-3.2 5.8,0.5 c 32,2.6 82.2,14.5 117.3,27.9 27.2,10.3 70.8,31.3 79.7,38.4 10.9,8.6 14.6,22.6 9.2,35.1 -3.9,9 -11.8,13.4 -22.2,12.3 -7.7,-0.7 -12.1,-3.3 -15.8,-9.2 -3.6,-5.6 -4,-13.8 -0.9,-18.8 3.8,-6.2 14.7,-9.3 19.9,-5.7 2,1.5 2.3,2.3 1.8,5.9 -0.7,4.7 0.4,6.5 4,6.5 2.9,0 4.3,-2.7 4.3,-8.6 0,-4.3 -0.4,-5.1 -4.8,-9.4 -7.6,-7.6 -16.6,-8.9 -25.8,-3.5 -10.9,6.4 -15.8,24.6 -9.9,37.3 3.1,6.7 7.3,10.6 15.5,14.5 5.6,2.7 7.5,3.1 14.5,3 15.7,0 26.6,-8.5 31.1,-23.9 2.5,-8.8 1.4,-15.8 -6.6,-39.4 -21.7,-64.9 -23.1,-87.5 -6.2,-103.6 10.8,-10.3 26.7,-18 45.2,-22 6.6,-1.4 12.6,-1.8 26.5,-1.7 20.1,0.1 30.8,1.7 47,7.3 20.4,7.1 18.2,6.6 21.3,4.4 3.4,-2.5 6.3,-8.3 5.6,-11 -0.3,-1.3 -3.2,-3.7 -6.7,-5.9 -3.4,-2 -8.4,-5 -11.2,-6.7 -12,-7.3 -45.2,-24.8 -63.3,-33.3 -66.1,-31.1 -128.9,-48.7 -187.6,-52.5 -17.8,-1.1 -23.8,-1.1 -41.1,0.2 z M 1985.6,634 c 7.1,0.6 13.8,1.3 14.9,1.5 1.1,0.2 2.3,0.4 2.8,0.4 0.4,0.1 0.7,0.6 0.7,1.3 0,0.6 -4.9,17.4 -10.9,37.2 -12.7,41.9 -16.1,54.7 -19.5,74.6 -2.3,13 -2.5,16.5 -2.2,34.5 0.3,14.7 0.9,23.2 2.5,32 6.2,34.1 22.2,83.2 37.5,115 2.9,6 5.3,11.1 5.2,11.2 -0.3,0.5 -18.9,-4.3 -32.1,-8.3 -70.5,-21.4 -117.6,-56 -141.1,-103.5 -19.3,-39.1 -19.4,-88.9 -0.2,-127.3 14.2,-28.5 39.1,-49.8 70.6,-60.5 9.7,-3.3 28.6,-7 40.2,-8 15.2,-1.2 17.3,-1.2 31.6,-0.1 z"
       id="path57"
       style="fill:#000000;stroke:none;stroke-width:0.1" />
  </g>
</svg>
