<?xml version="1.0" encoding="UTF-8" standalone="no"?>
<svg
   version="1.0"
   width="3000.000000pt"
   height="2400.000000pt"
   viewBox="0 0 3000.000000 2400.000000"
   preserveAspectRatio="xMidYMid meet"
   id="svg99"
   sodipodi:docname="pikachu1.svg"
   inkscape:version="1.1.2 (b8e25be833, 2022-02-05)"
   xmlns:inkscape="http://www.inkscape.org/namespaces/inkscape"
   xmlns:sodipodi="http://sodipodi.sourceforge.net/DTD/sodipodi-0.dtd"
   xmlns="http://www.w3.org/2000/svg"
   xmlns:svg="http://www.w3.org/2000/svg">
  <defs
     id="defs103" />
  <sodipodi:namedview
     id="namedview101"
     pagecolor="#ffffff"
     bordercolor="#666666"
     borderopacity="1.0"
     inkscape:pageshadow="2"
     inkscape:pageopacity="0.0"
     inkscape:pagecheckerboard="0"
     inkscape:document-units="pt"
     showgrid="false"
     inkscape:zoom="0.158125"
     inkscape:cx="992.88538"
     inkscape:cy="1600"
     inkscape:window-width="1366"
     inkscape:window-height="715"
     inkscape:window-x="-8"
     inkscape:window-y="-8"
     inkscape:window-maximized="1"
     inkscape:current-layer="svg99" />
  <g
     id="g215"
     transform="translate(807.30846,518.55182)">
    <path
       d="m 880.4,117.5 c -31.3,3.6 -59.6,12.9 -77.2,25.5 -15.1,10.6 -32.5,29.8 -43.3,47.5 -5.1,8.4 -5.2,8.4 -7.8,7.1 -22,-11.4 -53.6,-21.8 -82.5,-27.1 -11.9,-2.2 -37.7,-4.5 -50.1,-4.5 -19.7,0 -43.2,2.9 -64.8,7.9 -31.8,7.5 -67.9,25.3 -94.7,46.8 -3.6,2.9 -6.8,5.3 -7.2,5.3 -0.4,0 -3.1,-2.3 -6,-5.1 -14.9,-14.3 -35.6,-26.5 -53.3,-31.7 -27,-7.9 -60,-8.2 -92.5,-1.1 -47.5,10.5 -98.2,36.9 -147,76.8 -21.3,17.3 -52.1,46.7 -71.5,68.1 -3.2,3.6 -7.7,8.5 -10,11 -2.2,2.5 -7.7,8.8 -12,14 -4.4,5.2 -8.3,9.7 -8.6,10 -0.3,0.3 -4,4.8 -8.2,10.1 -8.7,10.9 -9.5,13.8 -5.1,18.3 1.5,1.4 2.9,2.6 3.3,2.7 0.3,0 1.7,0.2 3,0.5 2.8,0.5 5.2,-1 13.7,-8.1 13.3,-11.4 28.3,-19.7 47.2,-26.5 28,-10 52.8,-10.6 75.5,-1.8 16.9,6.5 23.5,18.9 25.7,48.3 0.6,7.7 1.5,18.7 2,24.5 0.6,5.8 1,17 1,25 0,8 0.5,17.8 1,21.8 2.6,19.6 15.3,31.8 33.1,31.7 6.5,-0.1 8.6,-0.6 14.2,-3.3 7,-3.5 13.1,-9.4 16.3,-16 2.9,-5.6 2.6,-19.3 -0.4,-25 -5.8,-10.8 -13.8,-16.5 -23.5,-16.3 -10.5,0.1 -17.1,4.8 -19.6,13.6 -2.4,8.6 -0.7,15.1 5.5,21 5.2,5.1 10.1,6.7 12.1,3.9 2.3,-3.1 1.5,-6.3 -2.7,-10.8 -4.2,-4.5 -4.9,-7.5 -2.9,-12 2.2,-4.8 10.3,-5.8 15.7,-2 5.8,4.1 8.4,16.4 4.9,23 -2.3,4.4 -7.5,9.4 -11.4,11 -4.9,2.1 -13,1.7 -18,-0.7 -8.3,-4 -14.3,-15.1 -14.3,-26.4 0,-5.7 3.8,-14.5 8.6,-20 13.7,-15.9 37.3,-40.3 50.4,-52.4 29.3,-26.8 55.7,-46.1 90.2,-66 13.2,-7.6 14.4,-8.1 13,-5.5 -1.5,3 -6.9,22.8 -9.1,33.9 -4.2,21.3 -5.4,35.3 -4.8,59.9 0.8,37.9 6.1,64.4 20.8,104.6 7.9,21.5 9.8,28.3 11,41 1.1,10.9 0.6,28.3 -1.1,38.6 -0.6,3.2 -1,6.2 -1,6.5 0,0.3 -3.5,-0.2 -7.8,-1.2 -17.9,-4.3 -50.1,-5 -69.2,-1.4 -36.7,6.9 -74.1,24.1 -98.6,45.3 -18.4,15.9 -31,34.4 -41.6,60.7 -15,37.1 -18.8,76.8 -10.4,109.2 19.2,74.1 81.4,126.6 184.7,155.8 21.2,6.1 45.1,11.1 61.4,13 9,1.1 9.9,1.5 14.5,7.3 2.5,3.1 6.9,8.2 9.8,11.4 l 5.4,5.8 -2.9,1.1 c -1.5,0.6 -12.3,3.5 -24,6.5 -39.8,10 -55.3,15.1 -77,25.4 -28.4,13.5 -47,30.4 -53.3,48.4 -4.4,12.4 -6.4,38 -3.9,49.8 3.6,17.3 14,26 30.8,25.9 9.1,0 15.1,-1.5 42.6,-10.4 12.7,-4.2 39,-12.7 58.5,-19.1 78.6,-25.6 135.5,-44.8 163.3,-55.1 14.6,-5.4 17.5,-7.7 20.7,-16.3 3.1,-8.3 5.2,-20 4.5,-25.1 -0.5,-3.5 -0.4,-4.3 0.8,-3.8 2.1,0.8 16.3,4.5 24,6.2 36.1,8 83.8,9.6 122.7,3.9 14.6,-2.1 27.9,-5.1 38.8,-8.5 5.1,-1.7 9.6,-2.8 10.1,-2.5 0.5,0.3 1.1,2.5 1.5,4.8 1.7,10.5 6.8,28.8 10,35.4 3.9,8.3 7.9,12.9 22.1,25.7 10.3,9.3 11.1,10 23,20.2 3.8,3.3 7.5,6.4 8.1,7 0.6,0.5 3.3,2.8 6,5 2.6,2.2 7.8,6.5 11.5,9.5 3.6,3 8.8,7.3 11.5,9.5 2.6,2.2 8,6.6 11.9,9.8 3.8,3.2 7.7,6.3 8.5,7 0.8,0.7 9.2,7.3 18.5,14.8 30.2,24.2 50.8,39.2 65,47.5 4.6,2.7 5.7,2.9 15,2.8 29.3,-0.1 49.7,-18 54,-47.4 5.2,-34.3 -10.9,-64.4 -54.5,-102.6 -23.5,-20.5 -40.6,-34.1 -71.9,-57.3 -10,-7.4 -18.1,-13.7 -18.1,-14 0,-0.2 4.2,-4.8 9.3,-10 5,-5.3 10.1,-10.7 11.2,-12.1 9.6,-12 13.5,-17.3 21.7,-29.6 24.2,-36 34.6,-66.4 37.9,-110.8 1.9,-25.5 -0.4,-53.1 -6.7,-81.1 -1.3,-6.1 -2.7,-11.7 -3,-12.6 -0.3,-1.2 5,-6.1 19.8,-18 11.2,-9 21.4,-17.3 22.8,-18.5 1.4,-1.2 7.2,-6.1 13,-10.9 5.8,-4.8 12.3,-10.4 14.5,-12.4 2.2,-2 9.4,-8.6 16,-14.6 6.6,-6 15.4,-14.1 19.5,-18 4.1,-4 12.9,-12.2 19.4,-18.3 l 12,-11.1 7,6.2 c 12.7,11.1 43,37.9 47.1,41.6 2.2,2 9.6,8.4 16.5,14.1 6.9,5.8 12.7,10.7 13,11 1.3,1.3 14.1,11.2 19.4,14.9 7.9,5.5 10.7,5.4 16.1,-0.2 30,-31.3 83.6,-251.7 97.1,-399.2 2.2,-23.6 2.4,-52.5 0.5,-61.8 -1.4,-7.3 -4.6,-13 -7.5,-13.5 -6.2,-1.2 -31.6,35.5 -87.1,126.3 -32.5,53.2 -53.6,86.6 -73.4,116 -11.9,17.9 -26.6,37.8 -30,40.9 -2,1.8 -2.1,1.8 -3.1,-0.9 -5.8,-15.3 -19.3,-62.6 -27.5,-96.5 -9.3,-38.3 -13.3,-45.7 -19.8,-36.3 -5.2,7.7 -11.1,22.7 -25,63.8 -4.7,13.7 -10.6,30.6 -13.2,37.5 -2.5,6.9 -5.7,15.4 -6.9,19 -11.7,32.9 -40.3,97 -56.5,127 -7.3,13.3 -23.1,40.7 -25.7,44.4 -1.2,1.7 -1.9,0.5 -8.2,-12 -11.9,-23.9 -20.5,-38.9 -36.7,-63.4 -26.4,-40.1 -36.6,-60.9 -43,-88.5 -2.9,-12.6 -3.6,-29.6 -3.4,-81.5 0.1,-28.3 0,-53.5 -0.4,-56 -0.4,-2.5 -1.1,-8.6 -1.7,-13.5 -4.3,-35.3 -16,-70.8 -33.4,-101.3 L 842,279 h 4.8 c 10.6,0 55.7,8.7 78.4,15.1 32.8,9.2 53.2,17.3 92.3,36.4 30.2,14.7 35.8,19.6 38.3,33.4 1.2,6.8 -0.5,15.5 -4,20.9 -6.1,9.1 -21.9,11.3 -31.7,4.3 -6.3,-4.5 -9,-16.3 -5.5,-23.7 3.2,-6.7 15.7,-10.2 20.5,-5.8 1.6,1.5 2,2.7 1.6,5.5 -0.6,4.5 0.7,6.9 3.9,6.9 2.9,0 4.4,-3.1 4.4,-8.8 0,-8.1 -7.7,-15 -17.7,-15.9 -14.1,-1.3 -24,9.3 -25.1,26.7 -0.4,6.3 -0.1,8.5 1.8,12.8 2.6,5.9 8.7,11.9 15.7,15.3 5.5,2.7 15.8,3.6 23.3,2 14.7,-3 25.6,-20.1 23.5,-36.5 -0.4,-2.8 -3.5,-13.7 -7,-24.1 -24.9,-74.7 -24.6,-94.2 1.6,-112.3 11.8,-8.1 21.8,-12.1 37.9,-15.3 7.8,-1.5 12.9,-1.8 28.5,-1.5 21.4,0.4 32.2,2.4 49.4,9 11,4.3 14.9,4.5 17.9,1.3 2.8,-2.9 4.2,-7.5 3.2,-10.3 -0.9,-2.3 -23.7,-15.9 -51.7,-30.8 -10,-5.3 -18.3,-9.6 -18.6,-9.6 -0.2,0 -6.5,-2.9 -13.8,-6.4 -53.5,-25.5 -109.8,-42.4 -163.9,-49.2 -16.8,-2.1 -54.8,-2.6 -69.6,-0.9 z m 49.6,10.1 c 62.2,6.7 115.6,20.9 174.8,46.3 48.1,20.7 83.6,39 81.7,42.1 -0.8,1.3 -4.7,-0.1 -21.1,-7.8 -37.6,-17.7 -82.5,-30.1 -137.9,-38.1 -63.1,-9.1 -122.4,-4.3 -156.4,12.9 -32.4,16.2 -39.9,30.6 -32.1,61.2 1.2,4.4 3.4,10.7 5.1,13.9 1.6,3.2 2.9,6 2.9,6.2 0,0.2 -3.3,0.4 -7.3,0.5 l -7.2,0.2 -5.5,-7.2 c -13.1,-17.1 -30.8,-33.2 -51,-46.3 -5.8,-3.8 -10.9,-7.2 -11.4,-7.6 -0.4,-0.4 0.5,-2.9 2,-5.6 7.4,-12.8 21.2,-28.4 33.5,-37.9 24.6,-18.9 64.1,-32.9 98.4,-34.7 6.7,-0.4 15.4,0.2 31.5,1.9 z m 73.8,49.9 c 30.2,3.1 59.6,8.2 101.7,17.7 28.6,6.4 51.8,13.5 39.9,12.2 -2.2,-0.2 -7.9,-0.8 -12.9,-1.4 -33.4,-3.7 -60.4,3.1 -84.1,21.1 -9.7,7.4 -13.8,12.3 -18.2,21.6 -2.5,5.3 -2.7,6.8 -2.6,17.3 0,12.2 0.8,15.2 12.7,52.5 1.9,6 3.4,11.1 3.2,11.3 -0.1,0.2 -5.8,-2.6 -12.6,-6.2 -39,-20.4 -99.4,-42.7 -134.4,-49.6 -23.2,-4.6 -25.6,-5.2 -31.4,-8.1 -12.3,-6.2 -17.9,-16.3 -18.8,-34 -0.6,-11.8 0.2,-15.8 4.8,-22.5 13.1,-19.1 63,-32.7 122.2,-33.3 8.7,0 22.4,0.6 30.5,1.4 z M 657,178.6 c 12.3,1.3 36.4,6.7 50.2,11.4 35.6,12 67.2,31.4 93.1,57.3 13.9,13.7 20.6,21.9 30,36.3 22.3,34.3 34.3,71.6 38.2,118.4 1,11.5 1.5,31.6 1.5,58.5 0.1,53.5 1.8,71.9 9.1,97.2 4.9,16.8 8.7,24.6 30.2,60.5 25.4,42.6 31.4,53.2 41.4,73.3 28.3,56.6 40.3,101.1 40.3,149.5 0,30.5 -5.2,58.9 -15.5,84.6 -13.4,33 -27.7,55.4 -49.1,76.7 -11.2,11.1 -19.5,17.5 -35.8,27.4 -7.1,4.3 -13.1,8.4 -13.4,9 -0.5,1.6 11.4,1.8 15.5,0.2 5.8,-2.2 21.7,-5.9 22.2,-5.2 0.6,0.8 7.6,6.1 33.6,25.3 63.7,47.2 100.4,85.1 106,109.5 1.2,5.1 1,10.5 -0.4,10.5 -0.4,0 -1.6,-1.9 -2.8,-4.3 -5.8,-12 -22.5,-28.7 -28.5,-28.7 -3,0 -2,2.5 3.7,9.6 21.1,26.3 26,34.8 25.8,44.4 -0.1,6.2 -2.3,13.5 -5.9,19.2 -2.4,3.7 -9.4,9.5 -13.5,11 -1.7,0.7 -1.9,0.3 -1.9,-3.5 -0.1,-7.7 -2.8,-19.4 -5.9,-26.1 -2.3,-4.6 -5.8,-9.3 -11.9,-15.6 -8.5,-8.8 -8.8,-9 -13.2,-8.9 -9.9,0.2 -9.9,0.4 0.4,11 13.5,14.1 18.9,25.6 19,40.4 l 0.1,7 -3.7,0.3 c -5,0.4 -15.5,-2.3 -19.5,-5.1 -3.1,-2.2 -40.5,-32.2 -45.3,-36.4 -1.4,-1.2 -5.3,-4.3 -8.6,-7 -5.9,-4.6 -86.8,-72 -92.9,-77.4 -21.8,-19.1 -21.6,-18.9 -26.1,-28.4 -4.1,-8.8 -9.1,-24.5 -9.5,-29.5 -0.5,-8.9 -0.3,-9.5 6.4,-13.6 23.5,-14.5 53,-42 71,-66.3 13.3,-17.8 25.2,-36.7 33.3,-53.1 6.6,-13.3 10.5,-25.3 8.7,-27.1 -1.8,-1.8 -10.1,8.8 -20.6,26.6 -38.5,65.1 -71.5,98.7 -115,116.9 -17,7.2 -30.4,10.8 -54.7,15 -11.5,2 -44.4,2.7 -64,1.4 -23.8,-1.6 -56,-9.1 -79.3,-18.3 -61.5,-24.3 -114.3,-69 -155.2,-131.1 -10.4,-15.7 -12,-15.2 -6.4,2.3 12.7,39.6 47.8,79 97.4,109.3 8.2,5.1 33.4,17.6 42,21 10.5,4.1 12.8,6.1 14.6,12.5 1.4,4.9 1.3,19.5 -0.2,24.8 -1.2,4.4 -4.7,9.7 -6.4,9.7 -1.3,0 -33.6,10.4 -80.5,26 -76,25.1 -166.9,55 -172,56.5 -3,0.9 -9.3,1.8 -14,2.1 -7.2,0.5 -9,0.3 -11.9,-1.4 -3.9,-2.1 -6.6,-6.7 -7.6,-12.9 -0.6,-3.9 -0.4,-4.5 3.5,-8.6 4.5,-5 15.8,-13.1 23.6,-17 8,-4 16.4,-6.6 27.6,-8.2 7.1,-1.1 10.7,-2.1 11.6,-3.2 1.6,-2.3 1.6,-2.8 -1.1,-5.9 -3.4,-4 -10.4,-4.3 -23.2,-1 -15.5,4 -27.8,10.4 -38.9,20.3 -2.7,2.4 -5.1,4.2 -5.3,3.9 -0.4,-0.4 0.4,-5.5 2.2,-14.1 0.6,-2.7 12.2,-11.4 21.2,-15.9 4.6,-2.3 13.1,-5 23.3,-7.5 8.9,-2.2 16.8,-4.5 17.6,-5.2 2.1,-1.7 1.7,-3.6 -1.1,-5.5 -2.1,-1.4 -4.1,-1.6 -10.9,-1.1 -9.6,0.7 -16.1,2.7 -31.5,9.8 -6.1,2.8 -11.7,4.9 -12.4,4.6 -1.8,-0.6 9.9,-12.3 17.4,-17.3 14.2,-9.4 34.6,-18.7 62.4,-28.6 22.2,-7.8 50,-15.7 66.1,-18.8 l 6.1,-1.2 18.6,9.5 c 23.3,12 34.3,15.5 37.9,11.9 2,-2 -1.1,-4.1 -22.2,-15.8 -33.9,-18.7 -43.1,-25.7 -55.9,-42.8 -28.6,-38.1 -51.5,-96.8 -61.7,-157.8 -2.8,-17 -4.7,-40.4 -3.9,-48.8 0.3,-3 0.7,-8 1,-11 1.2,-13.1 5.2,-30.3 14.5,-63.5 2.2,-7.7 6.6,-23.5 9.8,-35 8.3,-29.3 11,-44.5 15.3,-84.9 1.1,-10.4 -0.5,-32.4 -3,-42.2 -1.1,-4.4 -3.9,-12.7 -6.1,-18.7 -9.2,-24.3 -15.1,-47.1 -18.6,-71.2 -2.7,-18.2 -2.4,-58.2 0.5,-77.2 9,-60.3 27.5,-98.6 65.6,-136.1 43.7,-42.9 89.3,-64.3 147.5,-69.2 9.7,-0.9 50.1,-0.4 60,0.6 z m -285.8,19 c 25.8,4.3 49.2,15.4 67.8,32.2 l 4.6,4.1 -9.3,9.6 c -9.5,9.8 -20.2,23 -27.6,34 -2.2,3.3 -4.1,6.2 -4.3,6.4 -0.2,0.2 -4.9,-1.3 -10.4,-3.3 -15.7,-5.8 -36.9,-11.3 -52.9,-13.8 -20.6,-3.2 -56.2,-3.2 -76.3,0 -45.1,7.1 -92.2,25.7 -132.5,52.3 -10.4,6.9 -28.2,20 -33.7,24.9 -1.7,1.5 -5.8,5.1 -9.1,8 -3.3,2.9 -12.8,12.1 -21.1,20.5 -13.6,13.8 -18.5,17.7 -20.1,16.1 -1.2,-1.1 5.5,-10.5 13.6,-19.1 11.8,-12.4 44.7,-45.3 55.8,-55.8 42.2,-39.5 86.5,-70.1 140.8,-97.3 21.4,-10.7 34.1,-15.3 51.5,-18.4 16.7,-3.1 46.1,-3.3 63.2,-0.4 z m -42.7,79.9 c 13.1,1.6 27.3,4.4 37.7,7.4 7.8,2.2 23.1,7.8 26.9,9.7 l 2.7,1.3 -4.9,11.3 -4.8,11.3 -8.3,3.1 c -22.7,8.4 -52.8,28 -87.3,56.8 -24.9,20.8 -55.3,49.8 -65.9,62.9 -2.1,2.6 -4.1,4.6 -4.3,4.4 -0.2,-0.3 -0.8,-9.4 -1.3,-20.3 -1.4,-28.5 -1.9,-34.5 -3.5,-40.8 -5.9,-22.6 -23.7,-34.9 -54.3,-37.7 -26.5,-2.4 -41.5,0.5 -66.8,12.8 -5.4,2.7 -11.2,5.4 -12.9,6.2 l -3,1.3 2,-2.2 c 5.9,-6.6 65.7,-42.5 96,-57.8 15.6,-7.8 36.9,-16.7 49.4,-20.6 27.8,-8.7 73.1,-12.8 102.6,-9.1 z m 1006.6,20.6 c 1.1,6.6 0.9,11.6 -1.7,39.9 -1.6,18.5 -3.4,34.1 -6.9,60.5 -12.7,94.2 -21.6,134.3 -54.1,240.8 -16.4,53.8 -27.8,83.4 -33,85.4 -1.6,0.6 -11.7,-6.8 -22.4,-16.4 -3.5,-3.2 -11,-9.8 -16.5,-14.8 -5.5,-4.9 -16.5,-15 -24.5,-22.4 -26.3,-24.4 -38.9,-35.7 -43.7,-38.9 l -3.5,-2.4 -15.7,15.4 c -20.7,20.5 -43.8,41.2 -88,78.6 -8,6.8 -15.7,13.3 -17.1,14.5 -11.7,10 -18.1,14.7 -18.4,13.5 -1.5,-5.2 -7.5,-21.7 -10.3,-28.5 l -3.3,-8.3 6.8,-10.2 c 14,-21 32.4,-53.6 44.7,-79.1 20.5,-42.8 35.6,-80.6 59,-148.2 8.7,-25.3 14.4,-39.5 15.7,-39.5 2.5,0 6.4,12.7 17.8,57.5 11.5,45 17,62 22.1,67.4 3.9,4.1 10.6,-0.2 22.8,-14.5 9.2,-11 52.8,-75.9 69.5,-103.8 6,-9.8 13.8,-22.8 17.6,-29 3.7,-6.1 17,-28 29.5,-48.6 34.4,-56.6 49.3,-78.6 51.7,-76.2 0.5,0.5 1.3,3.7 1.9,7.3 z M 376.5,624.6 c 20.9,3.7 19.6,2.8 17.7,10.9 -1.6,6.7 -1.6,6.7 -4.7,6 -19.1,-3.9 -40.3,-5.3 -55.2,-3.6 -22.8,2.6 -48.3,11.4 -68.8,23.6 -39.9,23.8 -62,61.7 -66.5,113.7 -1.8,21.7 1.3,43.9 9.1,63.6 13.2,33.6 39.5,63.7 74.7,85.9 19,11.9 46.4,23.7 73.9,31.7 12.5,3.6 43.6,10.6 47.2,10.6 1.1,0 2.7,1 3.4,2.2 0.8,1.3 3.3,5.3 5.6,9 2.4,3.7 4.1,7.1 3.9,7.6 -0.3,0.9 -29.5,-4.3 -39.8,-7.1 -14,-3.8 -24.4,-6.9 -35,-10.5 -56.5,-19.3 -99.3,-47.9 -128.5,-86 -22,-28.7 -33.5,-61.4 -33.5,-94.5 0.1,-31 10.7,-64.9 28.8,-92.2 9,-13.7 29,-33.5 43.2,-43 13.4,-8.9 32.5,-18.4 46.3,-22.9 10,-3.3 27.2,-7 37.7,-8 8.7,-0.8 25.7,0.5 40.5,3 z m 7.3,28 c 5.1,0.6 5.4,0.8 4.9,3.3 -0.2,1.4 -4.8,17 -10.2,34.6 -17.4,56.9 -21.3,74.5 -22.2,100.2 -0.7,18 0.4,30.3 4.3,50.3 4.5,23.2 14.3,55.7 24.2,80.5 5.1,12.6 14,32.4 15.8,35 0.8,1.1 1.4,2.3 1.4,2.6 0,1 -27.9,-6.4 -42,-11.1 -63.9,-21.3 -106.9,-53.3 -129.4,-96.2 -11.7,-22.4 -15.6,-37.6 -16.3,-64.3 -0.5,-17.7 -0.3,-19.9 2.1,-31.9 2.9,-14.1 7.2,-26.2 14.1,-39.4 18.3,-35.3 53.8,-57.7 100.8,-63.7 11.1,-1.4 40,-1.3 52.5,0.1 z"
       id="path59"
       style="fill:#000000;stroke:none;stroke-width:0.1" />
    <path
       d="m 698.5,234.8 c -6.5,3.1 -11.1,7.7 -14.7,14.5 -1.8,3.4 -2.3,5.8 -2.3,12.7 0,9.8 2,15.2 8.2,21.5 12.3,12.7 34.2,11.5 45.2,-2.5 11.8,-14.9 7.4,-35.6 -9.8,-45.8 -3.5,-2.1 -6,-2.6 -12.5,-2.9 -7.3,-0.4 -8.7,-0.1 -14.1,2.5 z m 27.8,10.3 c 1.4,2.9 1.5,4.2 0.6,6.8 -1.2,3.4 -5.3,6.1 -9.2,6.1 -6.2,0 -10.7,-8.4 -7.2,-13.6 4.1,-6.4 12.4,-6 15.8,0.7 z"
       id="path61"
       style="fill:#000000;stroke:none;stroke-width:0.1" />
    <path
       d="m 472.7,259.7 c -6.3,2.1 -14.1,9.2 -17.4,15.7 -5.2,10.1 -3.3,24.1 4.5,32.7 6.7,7.5 12.8,10.2 22.7,10.2 9.9,0 15.7,-2.3 21.9,-8.8 14.2,-14.5 10.1,-39.3 -7.9,-48.1 -7.1,-3.4 -16.8,-4.1 -23.8,-1.7 z m 18.4,5.6 c 4.7,3.6 5.1,9.7 1,13.8 -3.7,3.7 -7.9,3.8 -12,0.3 -6.4,-5.4 -2.7,-15.4 5.6,-15.4 2.1,0 4.5,0.6 5.4,1.3 z"
       id="path63"
       style="fill:#000000;stroke:none;stroke-width:0.1" />
    <path
       d="m 769.2,293.5 c -13.3,4.6 -22,11.8 -29.7,24.4 -5.5,9.2 -7.7,17.2 -8.3,29.7 -0.4,9 -0.1,12.6 1.7,19.5 4.8,19.3 16.5,34.1 34.1,43.3 26.2,13.7 55.8,5.2 70.9,-20.4 7.3,-12.3 8.5,-16.8 8.5,-32 0.1,-11.7 -0.2,-14.5 -2.3,-20.5 C 840.2,326 836,319 828,310.9 c -12.8,-13 -25.4,-18.9 -41.5,-19.6 -8.8,-0.3 -10.9,-0.1 -17.3,2.2 z m 27.3,6 c 13.3,3.5 28.5,16.3 34.8,29.6 6.7,14.1 9,29 6.4,41.4 -6.8,32.1 -35.3,48.5 -62.2,36.1 -17.2,-8 -28.4,-22 -33.5,-42.1 -3.8,-14.8 -2.1,-28.7 5.1,-42.7 9.7,-18.6 29.4,-27.4 49.4,-22.3 z"
       id="path65"
       style="fill:#000000;stroke:none;stroke-width:0.1" />
    <path
       d="m 585.5,302.9 c -5.2,2.3 -6.9,4.5 -6.9,8.8 0,5.3 3,7.3 10.9,7.3 10.8,0 17.5,-3.6 17.5,-9.4 0,-3.9 -0.7,-4.9 -4.7,-7 -4.2,-2.1 -11.8,-2 -16.8,0.3 z"
       id="path67"
       style="fill:#000000;stroke:none;stroke-width:0.1" />
    <path
       d="m 672.6,317.8 c -0.4,1 -0.2,3.8 0.2,6.3 1.2,6.2 -0.2,10.6 -4,12.9 -6.4,3.9 -11.2,3.6 -41.7,-2.4 -15.6,-3.1 -29.4,-5.6 -30.7,-5.6 -4.2,0 -13.7,4.1 -25.5,11.1 -17.4,10.3 -23.3,11.8 -30.7,8 -4.2,-2.1 -6.9,-4.9 -10.1,-10.3 -2.5,-4.2 -4.9,-5.4 -6.8,-3.5 -3,3 2.3,16.6 8.2,21 3,2.2 14,5 17.1,4.4 2.1,-0.4 2.5,0.2 4,4.7 3.1,9.8 8.8,23.2 13.7,32.6 4.8,9.2 12.1,21.3 14.2,23.6 0.5,0.7 3,3.7 5.4,6.8 4.1,5.2 11.9,12 16.8,14.5 1.2,0.6 4.4,1.6 7.3,2.2 14.8,3.2 26.4,-7.4 35,-31.6 6.5,-18.6 8.2,-27.5 8.6,-46.5 l 0.5,-17.5 7.7,-1.1 c 11.9,-1.7 16.8,-5.1 19.3,-13.5 2,-6.5 -1.9,-17.9 -6.1,-17.9 -1,0 -2.1,0.8 -2.4,1.8 z M 608,340.4 c 4.7,0.8 9.9,1.7 11.5,1.9 12,1.8 24.1,4.3 24.7,5.1 1.2,1.7 0.9,21.6 -0.3,30.3 -0.7,4.3 -1.2,7.9 -1.3,8 -0.1,0.1 -3.8,-0.9 -8.1,-2.3 -19.6,-6.3 -37.9,-3.5 -51.5,7.9 -3,2.5 -5.9,4.3 -6.4,4 -2.5,-1.6 -18,-38.4 -16.6,-39.6 2.5,-2.1 26.8,-14 31,-15.1 7,-1.9 6.9,-1.9 17,-0.2 z m 28,51.1 c 2.5,1 4.6,1.9 4.8,2.1 0.7,0.4 -3.1,13.3 -5.8,19.7 -3.8,8.9 -8.4,15.3 -12.2,17.3 -4.6,2.4 -12.1,2.1 -17.4,-0.7 -5.1,-2.6 -15.5,-13.1 -20.8,-21.1 l -3.6,-5.2 2.6,-2.7 c 3.8,-3.9 13.4,-8.8 20.7,-10.4 8.5,-2 25.7,-1.4 31.7,1 z"
       id="path69"
       style="fill:#000000;stroke:none;stroke-width:0.1" />
    <path
       d="m 438,338.2 c -15.1,1.9 -32.1,14.8 -40.4,30.8 -6,11.5 -8,19.9 -8.1,33.5 0,12.9 1.1,17.6 6.5,28.5 10.7,21.2 36.2,29 58.4,17.8 16.4,-8.2 26.1,-20.5 30.6,-38.5 4.4,-18.2 3.3,-31.9 -4,-47 -9,-18.5 -24.5,-27.5 -43,-25.1 z m 19.1,9 c 9.7,4.4 16.4,12.6 20.5,24.8 1.4,4.1 1.8,8.3 1.8,17 -0.1,13.1 -2.4,22 -8.7,33.3 -4.5,7.9 -15.1,18.1 -23.2,22.2 -5.3,2.7 -7,3 -15,3 -10.2,0 -14.9,-1.7 -22.3,-8.1 -5.4,-4.6 -11.6,-17.3 -13.3,-26.8 -2.1,-12.4 0.6,-26.7 7.6,-40.6 4,-7.9 8.5,-13.2 16,-19 11.6,-9 25.1,-11.1 36.6,-5.8 z"
       id="path71"
       style="fill:#000000;stroke:none;stroke-width:0.1" />
    <path
       d="m 615,480.1 c -43.4,5 -76.6,20.1 -103.9,47.1 -9.9,9.8 -22.2,25.5 -29.1,37.2 -4.3,7.3 -4.4,7.4 -6.7,5.9 -1.9,-1.2 -2.6,-1.3 -3.8,-0.3 -3.1,2.6 -1.8,6.2 5,13.3 11.2,11.7 18.7,25.5 34.8,63.7 21.7,51.5 23.2,54.5 54.9,111.8 11.7,21.4 14.7,35.2 10.4,48 -2.2,6.6 -10.4,15.6 -17.8,19.7 -28.2,15.7 -93.6,-30.7 -136,-96.5 -5.8,-9 -12.8,-21.9 -12.8,-23.7 0,-1.6 -3.4,-4.3 -5.4,-4.3 -1.6,0 -1.8,0.8 -1.4,6.2 0.7,10.7 7.6,24.4 21.9,43.9 8.6,11.7 10.9,14.6 18.1,23 5.1,5.9 5.8,7.4 6.8,13.1 6.3,39.5 27.1,84.9 55.7,121.9 35.5,46 81.9,77 130.3,87 14.7,3.1 46.4,3.8 63.5,1.4 77.3,-10.6 127.1,-42.2 154.9,-98.5 2.9,-5.8 5.5,-11.4 5.9,-12.5 0.3,-1.1 2,-6 3.7,-10.9 2.9,-8.4 6.4,-22.4 7.6,-30.4 0.3,-2 1,-6.4 1.5,-9.7 0.6,-3.3 1.3,-16.6 1.6,-29.5 l 0.6,-23.5 4.7,-7.6 c 15.3,-24.3 23.2,-47.2 30.2,-86.9 2.7,-15.9 3.2,-20.9 3.2,-35.5 0.1,-14.5 -0.2,-17.8 -1.9,-22.5 -1.4,-3.9 -2.6,-5.6 -4,-5.8 -2,-0.3 -2,0.3 -2.1,14.5 -0.3,33.1 -6.1,61.8 -18.9,93.4 -18.6,45.7 -46.5,79.1 -71.4,85.5 -6,1.5 -6.9,1.5 -12.5,0 -12,-3.4 -20.9,-10.9 -25.2,-21.3 -2.8,-7 -3.2,-18 -1,-33.1 0.8,-5.3 1.7,-11.5 2,-13.7 0.2,-2.2 1.8,-13.3 3.5,-24.7 1.7,-11.3 4.7,-34.7 6.6,-52 1.9,-17.2 3.7,-32.4 3.9,-33.8 0.2,-1.4 0.7,-4.8 1.1,-7.5 1.9,-15.2 6.9,-41.8 10.1,-54 5.3,-20.3 6,-24.9 4.6,-28 -2,-4.4 -5.3,-3 -7.7,3.2 -1.1,2.9 -2.2,5.3 -2.5,5.3 -0.3,0 -2.2,-2.1 -4.2,-4.8 -6.6,-8.5 -28.1,-29.5 -37.8,-36.8 -35.5,-26.6 -72.6,-38.6 -117.8,-38.3 -8.7,0.1 -19.1,0.5 -23.2,1 z m 58.1,4.4 c 26.4,4.7 44,11.2 64.9,24 18.6,11.4 42.4,32.6 54.2,48.3 l 4.6,6.2 -1.4,5.2 c -3.2,11.9 -10.3,44 -11.8,53.3 -1.5,9.5 -3.8,27.5 -5.1,41.5 -1.2,11.4 -4.3,34.6 -9.5,70.5 -7.4,50.2 -7.2,62.8 1.3,76.1 7.4,11.7 25.4,21.4 39.6,21.4 9.6,0 22.9,-4.9 32.1,-11.7 7.1,-5.3 18.4,-15.9 24.3,-22.7 l 6,-7 -0.6,22 c -0.7,29.3 -3.9,47 -12.7,70.9 -12.2,33 -34.1,61 -62.3,79.8 -4.7,3.1 -8.8,5.7 -9.1,5.7 -0.3,0 -2.7,1.3 -5.5,2.9 -16.1,9.5 -43.2,18.4 -70.6,23.1 -42.4,7.3 -77.9,3.7 -112.4,-11.4 -38.5,-16.9 -78.2,-52.3 -105.2,-93.6 -11.6,-17.8 -25.2,-45.3 -31.7,-64.5 -3.6,-10.3 -9.2,-31.7 -9.2,-34.7 0,-1.5 2.3,0.2 9.8,7.3 18.8,17.9 41.9,32.7 61.7,39.5 7.1,2.5 9.5,2.8 21,2.8 12.1,0.1 13.4,-0.1 18.8,-2.6 10.1,-4.8 19.3,-14.9 23.3,-25.8 2.5,-6.9 2,-20.7 -1.1,-31.5 -3.9,-13.5 -16.6,-39.9 -36.1,-75 -3,-5.5 -7.1,-13.4 -9,-17.5 -4.2,-8.8 -18.4,-39.9 -22.2,-48.5 -10.9,-24.7 -22.8,-45.9 -33.3,-59.1 -2.7,-3.4 -4.9,-6.7 -4.9,-7.3 0,-1.8 12.6,-20.8 19.3,-29.1 27.8,-34 64.3,-53.7 111.9,-59.9 3.5,-0.5 15.6,-0.9 26.9,-0.9 17.3,0 22.7,0.3 34,2.3 z"
       id="path73"
       style="fill:#000000;stroke:none;stroke-width:0.1" />
    <path
       d="m 470.6,765.8 c -0.2,0.4 -0.1,1.4 0.5,2.2 0.7,1.2 0.9,1 0.9,-0.8 0,-2.3 -0.5,-2.8 -1.4,-1.4 z"
       id="path75"
       style="fill:#000000;stroke:none;stroke-width:0.1" />
    <path
       d="m 466.9,780.7 c -1.3,1.6 -1.2,1.7 0.4,0.4 1.6,-1.3 2.1,-2.1 1.3,-2.1 -0.2,0 -1,0.8 -1.7,1.7 z"
       id="path77"
       style="fill:#000000;stroke:none;stroke-width:0.1" />
  </g>
</svg>
