<?xml version="1.0" encoding="UTF-8" standalone="no"?>
<svg
   version="1.0"
   width="3000.000000pt"
   height="2400.000000pt"
   viewBox="0 0 3000.000000 2400.000000"
   preserveAspectRatio="xMidYMid meet"
   id="svg99"
   sodipodi:docname="pikachu2.svg"
   inkscape:version="1.1.2 (b8e25be833, 2022-02-05)"
   xmlns:inkscape="http://www.inkscape.org/namespaces/inkscape"
   xmlns:sodipodi="http://sodipodi.sourceforge.net/DTD/sodipodi-0.dtd"
   xmlns="http://www.w3.org/2000/svg"
   xmlns:svg="http://www.w3.org/2000/svg">
  <defs
     id="defs103" />
  <sodipodi:namedview
     id="namedview101"
     pagecolor="#ffffff"
     bordercolor="#666666"
     borderopacity="1.0"
     inkscape:pageshadow="2"
     inkscape:pageopacity="0.0"
     inkscape:pagecheckerboard="0"
     inkscape:document-units="pt"
     showgrid="false"
     inkscape:zoom="0.158125"
     inkscape:cx="992.88538"
     inkscape:cy="1600"
     inkscape:window-width="1366"
     inkscape:window-height="715"
     inkscape:window-x="-8"
     inkscape:window-y="-8"
     inkscape:window-maximized="1"
     inkscape:current-layer="svg99" />
  <g
     id="g229"
     transform="translate(-60.076079,-565.19549)">
    <path
       d="m 1750.5,1200.6 c -38.1,5.8 -60.5,12.9 -78.6,25 -13.6,9 -33.5,30.7 -44.1,48 -2.8,4.6 -5.4,8.4 -5.7,8.4 -0.3,0 -6.4,-2.7 -13.6,-5.9 -23.4,-10.6 -53.2,-19.2 -82.5,-23.8 -17.9,-2.8 -61.7,-2.5 -80,0.5 -34.7,5.8 -63.8,16.3 -92.7,33.6 -7.6,4.6 -28,19.2 -31.1,22.3 -1.2,1.1 -2.5,0.3 -8.4,-4.9 -19.5,-17.6 -42.1,-29.3 -66.2,-34.6 -10.3,-2.2 -52.8,-2.4 -64.6,-0.3 -59,10.4 -114.6,39.2 -173.5,89.8 -20.2,17.3 -52.7,49.7 -71,70.8 -3.9,4.4 -7.4,8.5 -8,9.1 -12.2,13.8 -27.5,33.5 -27.5,35.4 0,1.1 1.4,3.5 3.1,5.5 2.5,2.9 3.8,3.5 6.9,3.5 3.3,0 5,-0.9 10.7,-5.8 20.2,-17.3 43.9,-28.8 70.3,-34.2 8.9,-1.9 12.8,-2.1 25,-1.7 32.7,1.1 47.1,10.6 53.4,35.4 0.8,3.2 2,13.2 2.6,22.3 0.6,9.1 1.5,20.8 2,26 0.5,5.2 1,16.1 1,24.1 0,16.7 0.9,22.7 4.6,31 3.2,7 8.4,12.1 16.3,15.7 14.6,6.9 34,-0.4 42.6,-16 2.6,-4.5 3,-6.4 3,-12.8 0,-6.2 -0.5,-8.5 -2.8,-13.2 -5.6,-11.4 -16.3,-17.9 -26.9,-16.3 -10.7,1.6 -16.8,8.8 -16.8,19.7 0,9.4 4.8,16.5 13.4,19.8 3.5,1.3 5.4,-0.1 6.2,-4.4 0.4,-2.2 -0.3,-3.5 -3.1,-6.3 -4.8,-4.8 -5.6,-6.5 -4.9,-10.2 1.3,-6.5 9.5,-9.2 16,-5.2 6.9,4.2 9.5,16.8 5.1,24.6 -6.6,11.6 -21.7,14.9 -32.4,6.8 -6.6,-4.9 -12,-18.5 -10.7,-26.8 1.4,-9 5.5,-14.7 25.1,-35.3 8.2,-8.5 15.3,-16.2 15.9,-17.1 1.6,-2.2 31.5,-29.7 38.9,-35.8 9.6,-7.8 26.4,-20.5 34.5,-26 15.7,-10.6 46.7,-28.9 47.5,-28.1 0.2,0.2 -0.2,2.3 -1.1,4.6 -6,17.5 -11.1,45.6 -12.3,68.2 -2.5,44.8 4.1,82.7 23.9,136.5 7.5,20.2 8.4,25.9 7.6,50 -0.3,11 -0.8,21.5 -1.2,23.3 -0.6,3 -0.9,3.3 -3.3,2.8 -34,-7.5 -65.4,-6.5 -97,3.1 -46.7,14.1 -80.5,37 -101.8,68.8 -8.7,13 -20.1,39.8 -24.9,58.6 -7.6,29.9 -7.6,60.9 0,87 8.9,30.8 25.6,58.3 49,80.7 18.4,17.6 38.9,31.4 66.1,44.7 38.2,18.6 84.1,32.3 129.3,38.6 5,0.7 9.5,1.5 10,1.8 0.4,0.3 3.3,3.7 6.4,7.6 3.1,3.8 7.3,8.6 9.2,10.4 2,1.9 3.6,3.8 3.6,4.1 0,1.4 -5.7,3.1 -28.8,8.9 -37.2,9.4 -57.3,16.2 -77.7,26.4 -27.1,13.5 -44.6,30.2 -50.4,48 -3.9,12 -5.7,31.8 -4.1,43.7 2,14.7 7.9,24.2 17.7,28.7 4.6,2 21.4,2.3 28.3,0.4 16,-4.4 214.5,-69.9 238.3,-78.6 22.1,-8.1 26.2,-10.1 29.2,-14.5 3.9,-5.7 6.6,-15.3 7.2,-25.7 0.3,-5.1 0.8,-9.3 1,-9.3 0.2,0 5.4,1.3 11.6,3 21.5,5.7 44.5,9 73.2,10.5 12.9,0.7 43.5,-0.7 55,-2.5 3.3,-0.5 8.3,-1.2 11,-1.5 8,-1 26.2,-5.3 36,-8.4 l 9,-3 1.3,5.7 c 8.8,36.9 10.2,40.1 23.4,53 5.1,5 14.7,13.6 21.3,19.3 6.6,5.6 13.4,11.4 15,12.8 2.9,2.5 22.5,18.9 33,27.7 6.3,5.2 12.7,10.4 29,23.4 7.2,5.7 15,12 17.5,14 9.5,7.6 33.9,25.9 43,32.2 15.1,10.4 18.4,11.8 28.4,11.8 14.4,0 24.3,-3.1 34.4,-10.8 14.9,-11.2 22.1,-29.2 20.9,-52.2 -0.7,-12.3 -3,-20.7 -9.2,-33 -11.1,-22.1 -25.8,-37.7 -68,-72.5 -17.8,-14.7 -28.1,-22.7 -56.7,-43.9 l -11.8,-8.7 3.6,-3.1 c 9.9,-8.7 31.5,-36 43.4,-55 17.1,-27.2 25.3,-48.3 31.2,-80.8 2,-11.2 2.3,-15.5 2.2,-41.5 0,-31.1 -1,-40.9 -7,-66.3 -1.3,-5.7 -2.4,-10.7 -2.4,-11.2 0,-0.4 6.9,-6.2 15.3,-12.9 38.6,-30.5 46.2,-37.2 101,-88 l 20.8,-19.3 2.2,1.9 c 1.2,1.1 8.7,7.7 16.7,14.8 8,7 18.3,16.2 23,20.4 8.6,7.8 28.4,24.7 44,37.7 12.5,10.3 22.9,17.4 25.8,17.4 5.9,0 16.7,-16.1 25.2,-37.5 46.5,-116.9 97.4,-409.8 76.2,-438.5 -2.6,-3.4 -5.8,-3.7 -8.9,-0.8 -8.6,7.8 -38.4,52.4 -73.8,110.3 -47.6,77.7 -75.4,121.4 -95.7,149.7 -8.7,12.3 -16.9,22.7 -17.9,22.8 -1.6,0.1 -19.5,-60.7 -26.4,-90 -8.9,-37.3 -12.8,-48.3 -17.5,-48.8 -1.9,-0.2 -3.1,0.6 -4.8,3.1 -4.1,6.2 -10.8,22.8 -19.7,48.7 -20.6,60.6 -35.9,100.5 -56.5,147 -6.3,14.2 -25.8,53 -34,67.5 -5.9,10.6 -17.6,29.5 -18.1,29.5 -0.4,0 -3,-4.8 -5.9,-10.8 -10.2,-21.2 -23.5,-44.1 -39.3,-67.6 -23.6,-35.3 -35.5,-60.1 -41.2,-85.4 -3.6,-16.6 -3.9,-21.8 -4,-83.2 -0.1,-62.1 -0.3,-65.8 -6,-93 -5,-24 -18.5,-59.3 -29.5,-77.2 -1.6,-2.6 -3,-5.1 -3,-5.5 0,-1.2 17.5,0.5 32.5,3.2 54.7,9.7 93.5,22.8 147.4,50 17.8,8.9 21.4,11.2 25.8,15.8 10.6,11.2 11.2,29 1.2,38.7 -5.1,5 -10,6.4 -18.4,5.5 -6.2,-0.6 -7,-1 -11.5,-5.3 -5.4,-5.3 -7.5,-10.8 -6.4,-17 1.1,-5.9 3.4,-8.9 8.5,-11.2 6.1,-2.6 9.9,-2.5 13.3,0.1 2.4,1.9 2.6,2.6 2,6.4 -0.5,3.7 -0.3,4.5 1.4,5.4 2.9,1.6 4.9,0.4 6.3,-3.6 2.3,-7 -1.6,-14.4 -9.6,-18.3 -6.7,-3.2 -15.8,-2.6 -21.7,1.6 -5.1,3.5 -9.1,10.4 -10.8,18.5 -3,14 3.6,26.1 17.9,32.8 7.5,3.5 20.1,3.7 27.2,0.5 6.6,-3.1 12.4,-8.7 15.6,-15.2 2.5,-5.1 2.8,-6.8 2.8,-15.7 0,-9.8 -0.2,-10.5 -7.7,-33 -12.3,-37.1 -15.6,-50.5 -16.5,-67 -1,-19.1 2.8,-28 16.2,-38.2 29.5,-22.5 77.2,-26.3 120.7,-9.7 10.1,3.8 13.1,3.8 16.8,-0.1 1.6,-1.7 2.4,-3.8 2.4,-6.7 l 0.1,-4.2 -9,-5.5 c -62.8,-37.9 -130.3,-66.5 -189,-80.2 -33.9,-7.8 -51.8,-10 -85.5,-10.4 -15.7,-0.2 -29.8,-0.1 -31.5,0.1 z m 115.2,22 c -0.3,0.3 -1.2,0.4 -1.9,0.1 -0.8,-0.3 -0.5,-0.6 0.6,-0.6 1.1,-0.1 1.7,0.2 1.3,0.5 z m 12.3,38.9 c 26.2,2.8 63,9.6 104,19.1 25.8,6 43.8,12.1 32.4,10.8 -2.2,-0.2 -7.9,-0.8 -12.9,-1.4 -34.1,-3.8 -60.8,2.6 -84.1,20.2 -19.5,14.8 -25.5,29.7 -20.9,52.2 0.8,4 4.4,16.3 7.9,27.2 6.8,21.4 7.9,25.4 7.1,25.4 -0.3,0 -2.3,-1.1 -4.4,-2.4 -6.2,-3.9 -26.6,-13.9 -40.6,-19.9 -46.2,-19.7 -76,-29.5 -109.7,-36.1 -19.2,-3.8 -22.4,-4.9 -29.4,-9.7 -8.5,-5.8 -12.9,-15.7 -14,-31.6 -0.5,-6.7 -0.3,-10.2 0.9,-14.4 4.2,-14.5 22.6,-25.6 54.8,-33.3 18,-4.3 29,-5.8 57.4,-8 9.2,-0.7 36.8,0.3 51.5,1.9 z m -361.5,0 c 55.4,4.8 102.6,24.9 143.5,61.1 37.6,33.2 62.7,78.9 72.5,131.3 4.4,24 4.8,31.1 5.9,117.1 0.3,25.2 0.8,32.7 2.5,43 5.1,29.9 10.7,45.4 24.5,67.9 14.3,23.2 37.3,62.4 43.7,74.2 35,64.9 49.9,115.5 49.9,168.9 0,30.8 -6.5,64.5 -16.8,87 -1.3,3 -4.7,10.4 -7.4,16.4 -5.4,12.1 -6.5,14.1 -15.1,27.1 -16.2,24.4 -37.2,44.1 -62.2,58.5 -10.1,5.8 -12.7,7.8 -11.9,9.2 0.8,1.3 7.8,0.2 22.9,-3.4 l 13,-3.1 18,13.2 17.9,13.1 4.3,8.3 c 2.4,4.5 4.3,9.5 4.3,11.2 -0.1,7.7 -7.1,16.5 -20,25.1 -15.9,10.6 -24.3,12.4 -67.7,13.8 -9.3,0.3 -11.5,0.1 -13,-1.3 -2.9,-2.5 -22.5,-19.5 -25.1,-21.7 -8,-6.6 -19.2,-34.6 -19.2,-47.8 0,-5.3 0.8,-6.2 10,-12.1 19.2,-12.2 39.7,-30.3 56.7,-50 15.1,-17.6 32.3,-43.5 43.2,-65.3 6.8,-13.6 8.7,-18.6 9.6,-25.2 l 0.6,-4.5 -5.3,5.7 c -2.9,3.1 -8.2,10.5 -11.8,16.5 -25.9,43.5 -40,62.6 -62.4,84.8 -22.3,22 -44,35 -75.4,44.9 -22,6.9 -45.4,10 -75.2,9.9 -39.1,-0.1 -69.3,-5.7 -106,-19.6 -21.3,-8.1 -50.7,-24.9 -70,-40 -33.1,-25.9 -56.3,-51.1 -82.5,-89.1 -10.5,-15.4 -12,-15.3 -6.6,0.5 7.9,23.4 19.3,41.5 39.5,62.8 5.6,5.9 11.9,12.3 14.1,14.2 2.2,1.9 4.2,3.7 4.5,4 1.7,2.1 22.1,17.3 30.5,22.7 11.7,7.7 33.4,19.2 46,24.5 18.8,7.8 19.9,9.1 20.2,25.4 0.4,16.2 -2.5,22.8 -11,25.2 -5.9,1.7 -70.6,22.8 -99.2,32.3 l -23.9,8 -5.6,-1.2 c -22.1,-4.8 -39.1,-15.4 -52.3,-32.5 -9.6,-12.5 -13.1,-26.6 -9.2,-36.8 1.6,-4.3 2.1,-4.7 7.9,-6.6 15.4,-5 31.9,-9.5 44.5,-12.1 l 13.8,-2.9 15.9,8.4 c 15.9,8.5 30.4,14.5 34.9,14.5 3.2,0 5.5,-1 5.5,-2.4 0,-1.4 -7.2,-6.2 -15.7,-10.5 -10.3,-5.1 -32.4,-18.1 -38.8,-22.6 -39.4,-28.2 -77.7,-113.9 -88.1,-197.5 -4,-32.4 -1.4,-54 12.7,-103.9 17.8,-62.8 21,-76.1 22.8,-95.1 0.7,-6.9 2,-16.8 2.8,-22 1.9,-11.1 1.3,-29.5 -1.2,-43.5 -0.9,-5 -4.3,-16 -7.5,-24.5 -12.8,-34.2 -18.7,-62.6 -20.6,-98.6 -0.5,-10.9 0.6,-34.9 2,-44.5 0.3,-1.3 0.7,-4.7 1.1,-7.4 4.8,-35.8 17.9,-72.3 35.2,-98.5 16.8,-25.3 40.6,-48.4 70.6,-68.7 31.2,-21.1 70.3,-33.8 110.6,-36 6.4,-0.3 11.8,-0.7 12,-0.9 1,-0.9 20.8,-0.3 36.6,1.1 z m -293.8,18.1 c -0.3,0.3 -1.2,0.4 -1.9,0.1 -0.8,-0.3 -0.5,-0.6 0.6,-0.6 1.1,-0.1 1.7,0.2 1.3,0.5 z m -24.2,81.4 c 18.8,2.8 22.2,3.6 39,8.4 8.1,2.3 25,8.8 26.3,10 0.3,0.3 0,1.1 -0.5,1.8 -0.5,0.7 -2.9,5.9 -5.2,11.4 -4.2,9.9 -4.4,10.2 -8.5,11.4 -9.5,2.8 -32.8,15.4 -50,26.9 -31.6,21.3 -85.8,68.8 -105.4,92.3 -3.3,4 -6,6.4 -6.5,5.9 -0.5,-0.5 -1.3,-11.4 -1.7,-24.2 -0.5,-12.9 -1.6,-27.2 -2.4,-31.8 -4.5,-25.3 -22.2,-39 -54.4,-42.1 -27.8,-2.6 -40.2,-0.2 -68.1,13.1 -7.9,3.8 -14.6,6.7 -14.8,6.5 -0.2,-0.2 2,-2.4 4.9,-4.8 4.7,-3.9 9.2,-7 20.8,-14.4 4.3,-2.7 27.8,-16.6 33.4,-19.8 2.3,-1.3 9.4,-5.3 15.8,-8.9 17.5,-10 44.6,-22.9 59.8,-28.5 18.6,-6.9 35.5,-10.5 64,-13.7 13.7,-1.6 41.7,-1.3 53.5,0.5 z m 1004.5,30.9 c 0,16.2 -2.2,41.5 -6.5,75.1 -1.4,10.7 -2.7,20.6 -3,22 -0.2,1.4 -0.7,4.7 -1,7.5 -1,8.1 -4.4,30.8 -7,46.5 -8.4,50.1 -15.7,80.8 -35.1,147 -20.6,70.3 -35.7,112.9 -41.8,117.9 -2.2,1.9 -4.3,0.8 -14.3,-7.2 -10.1,-8.1 -26.9,-23.1 -53.3,-47.8 -12.9,-12.1 -28.2,-25.8 -38.3,-34.3 l -5.8,-5 -15.2,15 c -16.5,16.3 -30.6,29.4 -49,45.3 -6.5,5.6 -13.3,11.5 -15,13.1 -7,6.3 -58.6,49.4 -59.6,49.8 -0.5,0.1 -2.3,-4.1 -4.1,-9.5 -1.8,-5.4 -5,-14.1 -7.1,-19.3 l -3.8,-9.5 8.7,-13.5 c 17.7,-27.2 23.9,-38.2 40,-70.7 21.5,-43.4 35.4,-77.6 57.4,-140.8 4.9,-14.3 10.8,-30.7 13,-36.4 6.3,-16.6 7.5,-18.4 9.9,-14 2.1,4 9,28.2 17,59.9 9.9,39 17,60.3 21.3,63.9 3.6,3 12.4,-3.7 24.2,-18.3 10.1,-12.4 53.9,-78.8 72.8,-110.1 9.2,-15.4 17.8,-29.6 19.1,-31.5 1.2,-1.9 7.8,-12.7 14.6,-24 6.8,-11.3 15.4,-25.5 19.1,-31.5 3.7,-6.1 7.9,-13 9.4,-15.5 6.5,-10.8 23.6,-35.8 26.9,-39.5 3.5,-3.8 3.8,-3.9 5.1,-2 1.1,1.4 1.4,5.7 1.4,17.4 z m -953.5,344.3 c 3.8,0.5 7.1,1.1 7.3,1.2 0.1,0.2 -4.9,17.6 -11.3,38.7 -15.9,52.6 -19.1,66.4 -21.6,92.1 -2.7,27.7 4,66 19.2,111.2 6.4,18.9 16.4,43.7 22.4,55.7 2,3.9 3.4,7.3 3.2,7.5 -0.7,0.7 -22.6,-5 -37,-9.6 -85.2,-27.3 -134.6,-73.6 -148.3,-139 -2.7,-12.7 -2.4,-41 0.4,-54.6 8.5,-40.2 29.6,-70 61.5,-86.9 14.4,-7.7 36,-14.2 55.2,-16.8 6.1,-0.8 42.2,-0.4 49,0.5 z"
       id="path79"
       style="fill:#000000;stroke:none;stroke-width:0.1" />
    <path
       d="m 1572.3,1316 c -8.4,1.7 -16.7,8.2 -20.7,16.2 -2.2,4.3 -2.6,6.6 -2.6,13.6 0,7 0.4,9.2 2.7,13.9 4.9,9.9 13.5,15.5 25,16.1 9.4,0.5 15.7,-1.6 22.3,-7.5 7.8,-7 9.5,-10.9 9.5,-22.3 0,-10.9 -1.4,-14.5 -8.4,-21.6 -4.8,-4.9 -9,-7 -16.2,-8.4 -5.8,-1.1 -5.7,-1.1 -11.6,0 z m 18.1,8.1 c 3.8,1.8 6,7.1 4.6,11.4 -1.5,4.4 -4.4,6.5 -9.3,6.5 -3.1,0 -4.5,-0.7 -6.8,-3.1 -7.5,-8 1.4,-19.4 11.5,-14.8 z"
       id="path81"
       style="fill:#000000;stroke:none;stroke-width:0.1" />
    <path
       d="m 1339.3,1343.7 c -5.3,1.8 -13.8,9.3 -16.3,14.3 -4.2,8.3 -4.3,19.7 -0.1,27.8 2.7,5.1 9.7,11.7 15.1,14.1 6.7,3 18.8,2.9 25.5,-0.3 10.2,-4.8 16.5,-14.7 17.1,-26.5 0.5,-12.3 -5.5,-22.4 -16.8,-28 -5.2,-2.6 -7.2,-3.1 -13.2,-3 -3.9,0 -9,0.7 -11.3,1.6 z m 20.8,6.2 c 6.2,6.3 2.1,16.1 -6.7,16.1 -5.6,0 -9.3,-3.7 -9.4,-9.3 0,-5.3 4.3,-9.7 9.5,-9.7 2.7,0 4.4,0.8 6.6,2.9 z"
       id="path83"
       style="fill:#000000;stroke:none;stroke-width:0.1" />
    <path
       d="m 1641.3,1375.4 c -29.4,7.2 -48.2,39.3 -41.9,71.6 4.9,25.4 23.5,45.4 48.1,52.1 6.3,1.7 9.6,2 15.6,1.6 19.6,-1.5 35.8,-12.7 44.9,-31.2 7.2,-14.5 8.6,-27.4 5,-43.8 -2.9,-12.9 -7.7,-21.5 -17.9,-31.7 -16.2,-16.2 -35.8,-22.9 -53.8,-18.6 z m 19.8,6.6 c 20.6,3.9 38,22.2 44,46.1 1.7,6.9 1.7,22.9 0,29.4 -3.5,13.3 -13,26.4 -22.8,31.8 -10.2,5.5 -22.3,7.1 -32.4,4.1 -25.9,-7.5 -43.2,-33.1 -42.4,-62.5 1,-31.9 25.4,-54.2 53.6,-48.9 z"
       id="path85"
       style="fill:#000000;stroke:none;stroke-width:0.1" />
    <path
       d="m 1451.3,1387 c -6,3.6 -7.2,10.3 -2.5,14 2.4,1.9 3.6,2.2 10.3,1.8 11.5,-0.7 17.9,-5.5 15.7,-11.9 -1.4,-4 -5.7,-5.9 -13.5,-5.9 -5,0 -7.7,0.5 -10,2 z"
       id="path87"
       style="fill:#000000;stroke:none;stroke-width:0.1" />
    <path
       d="m 1541.6,1399.8 c -1.7,0.4 -1.8,1.1 -1.2,7.9 1,10.6 -1,13.3 -11.1,15.3 -4,0.8 -7.7,0.4 -22.3,-2.5 -9.6,-1.9 -22.8,-4.5 -29.4,-5.8 -17,-3.4 -19.9,-2.6 -43.6,11.3 -4.7,2.8 -10.8,5.7 -13.6,6.6 -4.7,1.3 -5.6,1.3 -10.5,-0.3 -4.2,-1.4 -6,-2.7 -8.6,-6.3 -1.7,-2.5 -4.1,-5.5 -5.3,-6.8 -5.5,-6.1 -8,2.1 -3.5,11.5 4.3,8.7 11.8,12.8 23.2,12.6 2.4,-0.1 3.2,0.4 3.6,2.1 1.4,6.1 7.6,21.5 13.1,32.6 17,33.9 33.1,50.1 49.9,50.2 13.5,0 22.9,-10.2 31.1,-33.9 6.2,-18 8.1,-28.8 8.1,-46.4 v -15.7 l 6.5,-0.6 c 8.1,-0.8 15.8,-4.5 18.8,-8.9 5,-7.5 1.2,-24.4 -5.2,-22.9 z"
       id="path89"
       style="fill:#000000;stroke:none;stroke-width:0.1" />
    <path
       d="m 1299.2,1423 c -19.6,7 -34.2,23.3 -40.1,44.8 -4,14.6 -3.7,25.6 1.1,39.7 4.1,11.8 13,22.3 22.6,26.5 7,3.1 16.7,4.3 24.6,3 21.9,-3.5 39,-19.3 45.2,-41.6 2.2,-8.1 2.9,-24.6 1.5,-33 -1.5,-8.4 -7.5,-21.4 -12.7,-27.3 -10.5,-12.1 -28,-17.1 -42.2,-12.1 z m 26.4,7.6 c 6.1,2.9 13.3,10.2 16.7,17 4,8.3 5.2,14.1 5.1,25.9 -0.1,8.9 -0.6,12.5 -2.7,19 -5.3,16.3 -15.5,28.8 -28.9,35.5 -7.2,3.6 -8.8,4 -15.4,4 -13.8,0 -25.2,-7.5 -31.4,-20.5 -4.3,-9 -5.3,-15.2 -4.7,-28 0.8,-17.4 5.5,-28.9 16.7,-40.8 13.6,-14.5 30,-19 44.6,-12.1 z"
       id="path91"
       style="fill:#000000;stroke:none;stroke-width:0.1" />
    <path
       d="m 1669.5,1633.4 c -0.9,1.3 -3.1,8.6 -4.9,16.2 -11.6,47.9 -13.1,56.2 -17.1,93.9 -1.4,13.2 -3.5,30.1 -4.6,37.5 -1.1,7.4 -2.4,16.6 -2.9,20.5 -0.5,3.8 -2.4,16.2 -4.1,27.5 -4,25.8 -4.6,46.5 -1.5,54.5 5.4,13.7 13.6,21.5 28.2,26.8 12.7,4.6 18.8,4.5 31.6,-0.3 19.4,-7.3 46.5,-35 60.1,-61.8 11.9,-23.2 18,-42.8 23.3,-74.1 4.2,-25.5 5.2,-42.5 3,-53.5 -1.6,-8.3 -3.9,-13 -5.9,-12.3 -0.8,0.2 -1.3,5 -1.4,16.1 -0.4,33.1 -6.5,62.2 -19.8,94.8 -5.2,12.6 -6.5,14.7 -6.5,10.2 0,-4.8 -4.6,-10.3 -8.7,-10.4 -1.2,0 -6.6,2.3 -12.1,5.1 -9.7,4.9 -10,5 -13.4,3.6 -3.5,-1.5 -4,-2.2 -9.1,-13.7 -4.1,-9.4 -9.7,-14.5 -17.1,-15.7 -4.8,-0.8 -15.7,-0.8 -20.1,0 -7.6,1.4 -15,2.5 -15.2,2.3 -0.1,-0.1 0.7,-7.1 1.7,-15.6 1,-8.5 2.8,-23.8 4,-34 4.9,-42.9 11.3,-80.7 16.5,-97.5 3.2,-10.2 3.4,-19.9 0.6,-21.5 -2.7,-1.4 -2.8,-1.3 -4.6,1.4 z"
       id="path93"
       style="fill:#000000;stroke:none;stroke-width:0.1" />
    <path
       d="m 1338,1655.6 c -1.5,3.8 -1.4,3.9 4.3,9.6 11.7,11.8 20.5,27.6 36.7,66.3 5.1,12.1 13.1,30.3 17.7,40.5 4.7,10.2 8.7,19.1 9,19.7 0.4,1 -0.8,1.3 -4.3,1.3 -3.1,0 -6.1,0.7 -8.1,2 -3.1,1.8 -3.3,2.4 -3.3,7.2 0,3.5 1.4,9.3 4,16.8 2.1,6.3 3.5,11.9 3.1,12.3 -1.9,1.9 -6.8,0.8 -12,-2.7 -2.9,-2 -6.1,-3.6 -7.1,-3.6 -2.6,0 -5.6,4.2 -6.4,8.9 -1.2,7.7 -7.8,10 -17.5,6.1 -9.8,-3.8 -16,2.2 -16.1,15.6 0,4.7 -3.2,9.7 -5.9,9.2 -3.9,-0.7 -29,-31.1 -41.7,-50.6 -6.4,-9.8 -13.4,-23 -13.4,-25.4 0,-2.1 -3.6,-4.2 -5.7,-3.4 -1.9,0.8 -1.4,8 1.1,16.1 4.1,13.5 25.9,44.4 48.1,68.4 4.9,5.3 22.3,20.7 30,26.7 5.7,4.4 23.4,15 30,17.9 13.3,5.8 21.4,7.8 33,7.9 10.4,0.1 11.4,-0.1 17.8,-3.1 4.2,-2 8.8,-5.3 12.3,-8.7 11.6,-11.7 14.9,-26.1 10.1,-44.6 -3.6,-13.7 -18.3,-44.7 -38.2,-80 -4.6,-8.2 -8.7,-16.9 -23.7,-50 -22.1,-48.6 -32.4,-66.6 -45.4,-79.3 -4.5,-4.4 -7.1,-4.7 -8.4,-1.1 z"
       id="path95"
       style="fill:#000000;stroke:none;stroke-width:0.1" />
  </g>
</svg>
